<?xml version="1.0" encoding="UTF-8" standalone="no"?>
<!DOCTYPE svg PUBLIC "-//W3C//DTD SVG 1.1//EN"
 "http://www.w3.org/Graphics/SVG/1.1/DTD/svg11.dtd">
<!-- Generated by graphviz version 7.1.0 (0)
 -->
<!-- Pages: 1 -->
<svg width="1275pt" height="534pt"
 viewBox="0.00 0.00 1275.00 534.00" xmlns="http://www.w3.org/2000/svg" xmlns:xlink="http://www.w3.org/1999/xlink">
<g id="graph0" class="graph" transform="scale(1 1) rotate(0) translate(4 530)">
<polygon fill="#ffffff" stroke="none" points="-4,4 -4,-530 1271,-530 1271,4 -4,4"/>
<!-- DE&#45;9 -->
<g id="node1" class="node">
<title>DE&#45;9</title>
<polygon fill="#ffffff" stroke="black" points="125,-505.5 0,-505.5 0,-200.5 125,-200.5 125,-505.5"/>
<polygon fill="none" stroke="black" points="0.5,-482 0.5,-505 125.5,-505 125.5,-482 0.5,-482"/>
<text text-anchor="start" x="47.5" y="-489.8" font-family="arial" font-size="14.00">DE&#45;9</text>
<polygon fill="none" stroke="black" points="0.5,-459 0.5,-482 47.5,-482 47.5,-459 0.5,-459"/>
<text text-anchor="start" x="4.5" y="-466.8" font-family="arial" font-size="14.00">D&#45;Sub</text>
<polygon fill="none" stroke="black" points="47.5,-459 47.5,-482 86.5,-482 86.5,-459 47.5,-459"/>
<text text-anchor="start" x="51.5" y="-466.8" font-family="arial" font-size="14.00">male</text>
<polygon fill="none" stroke="black" points="86.5,-459 86.5,-482 125.5,-482 125.5,-459 86.5,-459"/>
<text text-anchor="start" x="90.5" y="-466.8" font-family="arial" font-size="14.00">9&#45;pin</text>
<polygon fill="none" stroke="black" points="0.5,-436 0.5,-459 103.5,-459 103.5,-436 0.5,-436"/>
<text text-anchor="start" x="42" y="-443.8" font-family="arial" font-size="14.00">NC</text>
<polygon fill="none" stroke="black" points="103.5,-436 103.5,-459 125.5,-459 125.5,-436 103.5,-436"/>
<text text-anchor="start" x="110.5" y="-443.8" font-family="arial" font-size="14.00">1</text>
<polygon fill="none" stroke="black" points="0.5,-413 0.5,-436 103.5,-436 103.5,-413 0.5,-413"/>
<text text-anchor="start" x="9" y="-420.8" font-family="arial" font-size="14.00">Baseband_TX</text>
<polygon fill="none" stroke="black" points="103.5,-413 103.5,-436 125.5,-436 125.5,-413 103.5,-413"/>
<text text-anchor="start" x="110.5" y="-420.8" font-family="arial" font-size="14.00">2</text>
<polygon fill="none" stroke="black" points="0.5,-390 0.5,-413 103.5,-413 103.5,-390 0.5,-390"/>
<text text-anchor="start" x="25.5" y="-397.8" font-family="arial" font-size="14.00">CAT_RX</text>
<polygon fill="none" stroke="black" points="103.5,-390 103.5,-413 125.5,-413 125.5,-390 103.5,-390"/>
<text text-anchor="start" x="110.5" y="-397.8" font-family="arial" font-size="14.00">3</text>
<polygon fill="none" stroke="black" points="0.5,-367 0.5,-390 103.5,-390 103.5,-367 0.5,-367"/>
<text text-anchor="start" x="26" y="-374.8" font-family="arial" font-size="14.00">CAT_TX</text>
<polygon fill="none" stroke="black" points="103.5,-367 103.5,-390 125.5,-390 125.5,-367 103.5,-367"/>
<text text-anchor="start" x="110.5" y="-374.8" font-family="arial" font-size="14.00">4</text>
<polygon fill="none" stroke="black" points="0.5,-344 0.5,-367 103.5,-367 103.5,-344 0.5,-344"/>
<text text-anchor="start" x="39" y="-351.8" font-family="arial" font-size="14.00">PTT</text>
<polygon fill="none" stroke="black" points="103.5,-344 103.5,-367 125.5,-367 125.5,-344 103.5,-344"/>
<text text-anchor="start" x="110.5" y="-351.8" font-family="arial" font-size="14.00">5</text>
<polygon fill="none" stroke="black" points="0.5,-321 0.5,-344 103.5,-344 103.5,-321 0.5,-321"/>
<text text-anchor="start" x="8" y="-328.8" font-family="arial" font-size="14.00">Baseband_RX</text>
<polygon fill="none" stroke="black" points="103.5,-321 103.5,-344 125.5,-344 125.5,-321 103.5,-321"/>
<text text-anchor="start" x="110.5" y="-328.8" font-family="arial" font-size="14.00">6</text>
<polygon fill="none" stroke="black" points="0.5,-298 0.5,-321 103.5,-321 103.5,-298 0.5,-298"/>
<text text-anchor="start" x="42" y="-305.8" font-family="arial" font-size="14.00">NC</text>
<polygon fill="none" stroke="black" points="103.5,-298 103.5,-321 125.5,-321 125.5,-298 103.5,-298"/>
<text text-anchor="start" x="110.5" y="-305.8" font-family="arial" font-size="14.00">7</text>
<polygon fill="none" stroke="black" points="0.5,-275 0.5,-298 103.5,-298 103.5,-275 0.5,-275"/>
<text text-anchor="start" x="36.5" y="-282.8" font-family="arial" font-size="14.00">GND</text>
<polygon fill="none" stroke="black" points="103.5,-275 103.5,-298 125.5,-298 125.5,-275 103.5,-275"/>
<text text-anchor="start" x="110.5" y="-282.8" font-family="arial" font-size="14.00">8</text>
<polygon fill="none" stroke="black" points="0.5,-252 0.5,-275 103.5,-275 103.5,-252 0.5,-252"/>
<text text-anchor="start" x="30.5" y="-259.8" font-family="arial" font-size="14.00">12V_In</text>
<polygon fill="none" stroke="black" points="103.5,-252 103.5,-275 125.5,-275 125.5,-252 103.5,-252"/>
<text text-anchor="start" x="110.5" y="-259.8" font-family="arial" font-size="14.00">9</text>
<polygon fill="none" stroke="black" points="0.5,-200 0.5,-252 125.5,-252 125.5,-200 0.5,-200"/>
<image xlink:href="dsub9.svg" width="117px" height="44px" preserveAspectRatio="xMinYMin meet" x="4.5" y="-248"/>
</g>
<!-- CT&#45;167 -->
<g id="node3" class="node">
<title>CT&#45;167</title>
<polygon fill="#ffffff" stroke="black" points="635,-526 269,-526 269,-146 635,-146 635,-526"/>
<polygon fill="none" stroke="black" points="269,-503 269,-526 635,-526 635,-503 269,-503"/>
<text text-anchor="start" x="429.5" y="-510.8" font-family="arial" font-size="14.00">CT&#45;167</text>
<polygon fill="none" stroke="black" points="269,-480 269,-503 471,-503 471,-480 269,-480"/>
<text text-anchor="start" x="332.5" y="-487.8" font-family="arial" font-size="14.00">P/N: CT&#45;167</text>
<polygon fill="none" stroke="black" points="471,-480 471,-503 635,-503 635,-480 471,-480"/>
<text text-anchor="start" x="534" y="-487.8" font-family="arial" font-size="14.00">Yaesu</text>
<polygon fill="none" stroke="black" points="269,-457 269,-480 435,-480 435,-457 269,-457"/>
<text text-anchor="start" x="286" y="-464.8" font-family="arial" font-size="14.00">Cable CT&#45;167 (pigtail)</text>
<polygon fill="none" stroke="black" points="435,-457 435,-480 491,-480 491,-457 435,-457"/>
<text text-anchor="start" x="452" y="-464.8" font-family="arial" font-size="14.00">10x</text>
<polygon fill="none" stroke="black" points="491,-457 491,-480 577,-480 577,-457 491,-457"/>
<text text-anchor="start" x="508" y="-464.8" font-family="arial" font-size="14.00">24 AWG</text>
<polygon fill="none" stroke="black" points="577,-457 577,-480 635,-480 635,-457 577,-457"/>
<text text-anchor="start" x="594" y="-464.8" font-family="arial" font-size="14.00">1 m</text>
<text text-anchor="start" x="337" y="-443.8" font-family="arial" font-size="14.00"> </text>
<text text-anchor="start" x="273" y="-424.8" font-family="arial" font-size="14.00">DE&#45;9:2:Baseband_TX</text>
<text text-anchor="start" x="416" y="-424.8" font-family="arial" font-size="14.00"> &#160;&#160;&#160;&#160;1:BN &#160;&#160;&#160;</text>
<text text-anchor="start" x="503" y="-424.8" font-family="arial" font-size="14.00">mini&#45;DIN&#45;10:1:PKD</text>
<polygon fill="#000000" stroke="none" points="269,-417 269,-419 635,-419 635,-417 269,-417"/>
<polygon fill="#895956" stroke="none" points="269,-415 269,-417 635,-417 635,-415 269,-415"/>
<polygon fill="#000000" stroke="none" points="269,-413 269,-415 635,-415 635,-413 269,-413"/>
<text text-anchor="start" x="300.5" y="-399.8" font-family="arial" font-size="14.00">DE&#45;9:8:GND</text>
<text text-anchor="start" x="416" y="-399.8" font-family="arial" font-size="14.00"> &#160;&#160;&#160;&#160;2:BK &#160;&#160;&#160;</text>
<text text-anchor="start" x="501.5" y="-399.8" font-family="arial" font-size="14.00">mini&#45;DIN&#45;10:2:GND</text>
<polygon fill="#000000" stroke="none" points="269,-392 269,-394 635,-394 635,-392 269,-392"/>
<polygon fill="#000000" stroke="none" points="269,-390 269,-392 635,-392 635,-390 269,-390"/>
<polygon fill="#000000" stroke="none" points="269,-388 269,-390 635,-390 635,-388 269,-388"/>
<text text-anchor="start" x="303" y="-374.8" font-family="arial" font-size="14.00">DE&#45;9:5:PTT</text>
<text text-anchor="start" x="415.5" y="-374.8" font-family="arial" font-size="14.00"> &#160;&#160;&#160;&#160;3:RD &#160;&#160;&#160;</text>
<text text-anchor="start" x="503.5" y="-374.8" font-family="arial" font-size="14.00">mini&#45;DIN&#45;10:3:PSK</text>
<polygon fill="#000000" stroke="none" points="269,-367 269,-369 635,-369 635,-367 269,-367"/>
<polygon fill="#ff0000" stroke="none" points="269,-365 269,-367 635,-367 635,-365 269,-365"/>
<polygon fill="#000000" stroke="none" points="269,-363 269,-365 635,-365 635,-363 269,-363"/>
<text text-anchor="start" x="272.5" y="-349.8" font-family="arial" font-size="14.00">DE&#45;9:6:Baseband_RX</text>
<text text-anchor="start" x="414" y="-349.8" font-family="arial" font-size="14.00"> &#160;&#160;&#160;&#160;4:OG &#160;&#160;&#160;</text>
<text text-anchor="start" x="490.5" y="-349.8" font-family="arial" font-size="14.00">mini&#45;DIN&#45;10:4:RX 9600</text>
<polygon fill="#000000" stroke="none" points="269,-342 269,-344 635,-344 635,-342 269,-342"/>
<polygon fill="#ff8000" stroke="none" points="269,-340 269,-342 635,-342 635,-340 269,-340"/>
<polygon fill="#000000" stroke="none" points="269,-338 269,-340 635,-340 635,-338 269,-338"/>
<text text-anchor="start" x="416" y="-324.8" font-family="arial" font-size="14.00"> &#160;&#160;&#160;&#160;5:YE &#160;&#160;&#160;</text>
<polygon fill="#000000" stroke="none" points="269,-317 269,-319 635,-319 635,-317 269,-317"/>
<polygon fill="#ffff00" stroke="none" points="269,-315 269,-317 635,-317 635,-315 269,-315"/>
<polygon fill="#000000" stroke="none" points="269,-313 269,-315 635,-315 635,-313 269,-313"/>
<text text-anchor="start" x="414.5" y="-299.8" font-family="arial" font-size="14.00"> &#160;&#160;&#160;&#160;6:GN &#160;&#160;&#160;</text>
<polygon fill="#000000" stroke="none" points="269,-292 269,-294 635,-294 635,-292 269,-292"/>
<polygon fill="#00ff00" stroke="none" points="269,-290 269,-292 635,-292 635,-290 269,-290"/>
<polygon fill="#000000" stroke="none" points="269,-288 269,-290 635,-290 635,-288 269,-288"/>
<text text-anchor="start" x="290.5" y="-274.8" font-family="arial" font-size="14.00">DE&#45;9:4:CAT_TX</text>
<text text-anchor="start" x="416" y="-274.8" font-family="arial" font-size="14.00"> &#160;&#160;&#160;&#160;7:BU &#160;&#160;&#160;</text>
<text text-anchor="start" x="502.5" y="-274.8" font-family="arial" font-size="14.00">mini&#45;DIN&#45;10:8:RXD</text>
<polygon fill="#000000" stroke="none" points="269,-267 269,-269 635,-269 635,-267 269,-267"/>
<polygon fill="#0066ff" stroke="none" points="269,-265 269,-267 635,-267 635,-265 269,-265"/>
<polygon fill="#000000" stroke="none" points="269,-263 269,-265 635,-265 635,-263 269,-263"/>
<text text-anchor="start" x="289.5" y="-249.8" font-family="arial" font-size="14.00">DE&#45;9:3:CAT_RX</text>
<text text-anchor="start" x="415" y="-249.8" font-family="arial" font-size="14.00"> &#160;&#160;&#160;&#160;8:GY &#160;&#160;&#160;</text>
<text text-anchor="start" x="503.5" y="-249.8" font-family="arial" font-size="14.00">mini&#45;DIN&#45;10:7:TXD</text>
<polygon fill="#000000" stroke="none" points="269,-242 269,-244 635,-244 635,-242 269,-242"/>
<polygon fill="#999999" stroke="none" points="269,-240 269,-242 635,-242 635,-240 269,-240"/>
<polygon fill="#000000" stroke="none" points="269,-238 269,-240 635,-240 635,-238 269,-238"/>
<text text-anchor="start" x="413.5" y="-224.8" font-family="arial" font-size="14.00"> &#160;&#160;&#160;&#160;9:WH &#160;&#160;&#160;</text>
<polygon fill="#000000" stroke="none" points="269,-217 269,-219 635,-219 635,-217 269,-217"/>
<polygon fill="#ffffff" stroke="none" points="269,-215 269,-217 635,-217 635,-215 269,-215"/>
<polygon fill="#000000" stroke="none" points="269,-213 269,-215 635,-215 635,-213 269,-213"/>
<text text-anchor="start" x="412.5" y="-199.8" font-family="arial" font-size="14.00"> &#160;&#160;&#160;&#160;10:BK &#160;&#160;&#160;</text>
<polygon fill="#000000" stroke="none" points="269,-192 269,-194 635,-194 635,-192 269,-192"/>
<polygon fill="#000000" stroke="none" points="269,-190 269,-192 635,-192 635,-190 269,-190"/>
<polygon fill="#000000" stroke="none" points="269,-188 269,-190 635,-190 635,-188 269,-188"/>
<text text-anchor="start" x="337" y="-174.8" font-family="arial" font-size="14.00"> </text>
<polygon fill="none" stroke="black" points="269,-146 269,-169 635,-169 635,-146 269,-146"/>
<text text-anchor="start" x="273" y="-153.8" font-family="arial" font-size="14.00">NOTE: The CT&#45;167 cable uses the thick black wire for GND</text>
</g>
<!-- DE&#45;9&#45;&#45;CT&#45;167 -->
<g id="edge1" class="edge">
<title>DE&#45;9:e&#45;&#45;CT&#45;167:w</title>
<path fill="none" stroke="#000000" stroke-width="2" d="M125,-423C188.13,-423.26 203.88,-414.26 269,-414"/>
<path fill="none" stroke="#895956" stroke-width="2" d="M125,-425C189.12,-425 204.88,-416 269,-416"/>
<path fill="none" stroke="#000000" stroke-width="2" d="M125,-427C190.12,-426.74 205.87,-417.74 269,-418"/>
</g>
<!-- DE&#45;9&#45;&#45;CT&#45;167 -->
<g id="edge3" class="edge">
<title>DE&#45;9:e&#45;&#45;CT&#45;167:w</title>
<path fill="none" stroke="#000000" stroke-width="2" d="M125,-400C219.08,-402.57 171.08,-241.57 269,-239"/>
<path fill="none" stroke="#999999" stroke-width="2" d="M125,-402C221,-402 173,-241 269,-241"/>
<path fill="none" stroke="#000000" stroke-width="2" d="M125,-404C222.92,-401.43 174.92,-240.43 269,-243"/>
</g>
<!-- DE&#45;9&#45;&#45;CT&#45;167 -->
<g id="edge5" class="edge">
<title>DE&#45;9:e&#45;&#45;CT&#45;167:w</title>
<path fill="none" stroke="#000000" stroke-width="2" d="M125,-377C204.38,-379.33 185.67,-266.33 269,-264"/>
<path fill="none" stroke="#0066ff" stroke-width="2" d="M125,-379C206.35,-379 187.65,-266 269,-266"/>
<path fill="none" stroke="#000000" stroke-width="2" d="M125,-381C208.33,-378.67 189.62,-265.67 269,-268"/>
</g>
<!-- DE&#45;9&#45;&#45;CT&#45;167 -->
<g id="edge7" class="edge">
<title>DE&#45;9:e&#45;&#45;CT&#45;167:w</title>
<path fill="none" stroke="#000000" stroke-width="2" d="M125,-354C190.23,-354.31 205.92,-364.31 269,-364"/>
<path fill="none" stroke="#ff0000" stroke-width="2" d="M125,-356C189.15,-356 204.85,-366 269,-366"/>
<path fill="none" stroke="#000000" stroke-width="2" d="M125,-358C188.08,-357.69 203.77,-367.69 269,-368"/>
</g>
<!-- DE&#45;9&#45;&#45;CT&#45;167 -->
<g id="edge9" class="edge">
<title>DE&#45;9:e&#45;&#45;CT&#45;167:w</title>
<path fill="none" stroke="#000000" stroke-width="2" d="M125,-330C190.12,-330.26 205.87,-339.26 269,-339"/>
<path fill="none" stroke="#ff8000" stroke-width="2" d="M125,-332C189.12,-332 204.88,-341 269,-341"/>
<path fill="none" stroke="#000000" stroke-width="2" d="M125,-334C188.13,-333.74 203.88,-342.74 269,-343"/>
</g>
<!-- DE&#45;9&#45;&#45;CT&#45;167 -->
<g id="edge11" class="edge">
<title>DE&#45;9:e&#45;&#45;CT&#45;167:w</title>
<path fill="none" stroke="#000000" stroke-width="2" d="M125,-284C206.19,-286.27 191.77,-391.27 269,-389"/>
<path fill="none" stroke="#000000" stroke-width="2" d="M125,-286C204.21,-286 189.79,-391 269,-391"/>
<path fill="none" stroke="#000000" stroke-width="2" d="M125,-288C202.23,-285.73 187.81,-390.73 269,-393"/>
</g>
<!-- mini&#45;DIN&#45;10 -->
<g id="node2" class="node">
<title>mini&#45;DIN&#45;10</title>
<polygon fill="#ffffff" stroke="black" points="1267,-470 779,-470 779,0 1267,0 1267,-470"/>
<polygon fill="none" stroke="black" points="779,-447 779,-470 1267,-470 1267,-447 779,-447"/>
<text text-anchor="start" x="986.5" y="-454.8" font-family="arial" font-size="14.00">mini&#45;DIN&#45;10</text>
<polygon fill="none" stroke="black" points="779,-424 779,-447 980,-447 980,-424 779,-424"/>
<text text-anchor="start" x="834" y="-431.8" font-family="arial" font-size="14.00">10&#45;pin miniDIN</text>
<polygon fill="none" stroke="black" points="980,-424 980,-447 1120,-447 1120,-424 980,-424"/>
<text text-anchor="start" x="1034.5" y="-431.8" font-family="arial" font-size="14.00">male</text>
<polygon fill="none" stroke="black" points="1120,-424 1120,-447 1267,-447 1267,-424 1120,-424"/>
<text text-anchor="start" x="1174.5" y="-431.8" font-family="arial" font-size="14.00">10&#45;pin</text>
<polygon fill="none" stroke="black" points="779,-401 779,-424 1005,-424 1005,-401 779,-401"/>
<text text-anchor="start" x="888" y="-408.8" font-family="arial" font-size="14.00">1</text>
<polygon fill="none" stroke="black" points="1005,-401 1005,-424 1267,-424 1267,-401 1005,-401"/>
<text text-anchor="start" x="1122" y="-408.8" font-family="arial" font-size="14.00">PKD</text>
<polygon fill="none" stroke="black" points="779,-378 779,-401 1005,-401 1005,-378 779,-378"/>
<text text-anchor="start" x="888" y="-385.8" font-family="arial" font-size="14.00">2</text>
<polygon fill="none" stroke="black" points="1005,-378 1005,-401 1267,-401 1267,-378 1005,-378"/>
<text text-anchor="start" x="1120.5" y="-385.8" font-family="arial" font-size="14.00">GND</text>
<polygon fill="none" stroke="black" points="779,-355 779,-378 1005,-378 1005,-355 779,-355"/>
<text text-anchor="start" x="888" y="-362.8" font-family="arial" font-size="14.00">3</text>
<polygon fill="none" stroke="black" points="1005,-355 1005,-378 1267,-378 1267,-355 1005,-355"/>
<text text-anchor="start" x="1122" y="-362.8" font-family="arial" font-size="14.00">PSK</text>
<polygon fill="none" stroke="black" points="779,-332 779,-355 1005,-355 1005,-332 779,-332"/>
<text text-anchor="start" x="888" y="-339.8" font-family="arial" font-size="14.00">4</text>
<polygon fill="none" stroke="black" points="1005,-332 1005,-355 1267,-355 1267,-332 1005,-332"/>
<text text-anchor="start" x="1109.5" y="-339.8" font-family="arial" font-size="14.00">RX 9600</text>
<polygon fill="none" stroke="black" points="779,-309 779,-332 1005,-332 1005,-309 779,-309"/>
<text text-anchor="start" x="888" y="-316.8" font-family="arial" font-size="14.00">5</text>
<polygon fill="none" stroke="black" points="1005,-309 1005,-332 1267,-332 1267,-309 1005,-309"/>
<text text-anchor="start" x="1109.5" y="-316.8" font-family="arial" font-size="14.00">RX 1200</text>
<polygon fill="none" stroke="black" points="779,-286 779,-309 1005,-309 1005,-286 779,-286"/>
<text text-anchor="start" x="888" y="-293.8" font-family="arial" font-size="14.00">6</text>
<polygon fill="none" stroke="black" points="1005,-286 1005,-309 1267,-309 1267,-286 1005,-286"/>
<text text-anchor="start" x="1111" y="-293.8" font-family="arial" font-size="14.00">PK SQL</text>
<polygon fill="none" stroke="black" points="779,-263 779,-286 1005,-286 1005,-263 779,-263"/>
<text text-anchor="start" x="888" y="-270.8" font-family="arial" font-size="14.00">7</text>
<polygon fill="none" stroke="black" points="1005,-263 1005,-286 1267,-286 1267,-263 1005,-263"/>
<text text-anchor="start" x="1122" y="-270.8" font-family="arial" font-size="14.00">TXD</text>
<polygon fill="none" stroke="black" points="779,-240 779,-263 1005,-263 1005,-240 779,-240"/>
<text text-anchor="start" x="888" y="-247.8" font-family="arial" font-size="14.00">8</text>
<polygon fill="none" stroke="black" points="1005,-240 1005,-263 1267,-263 1267,-240 1005,-240"/>
<text text-anchor="start" x="1121.5" y="-247.8" font-family="arial" font-size="14.00">RXD</text>
<polygon fill="none" stroke="black" points="779,-217 779,-240 1005,-240 1005,-217 779,-217"/>
<text text-anchor="start" x="888" y="-224.8" font-family="arial" font-size="14.00">9</text>
<polygon fill="none" stroke="black" points="1005,-217 1005,-240 1267,-240 1267,-217 1005,-217"/>
<text text-anchor="start" x="1122" y="-224.8" font-family="arial" font-size="14.00">CTS</text>
<polygon fill="none" stroke="black" points="779,-194 779,-217 1005,-217 1005,-194 779,-194"/>
<text text-anchor="start" x="884" y="-201.8" font-family="arial" font-size="14.00">10</text>
<polygon fill="none" stroke="black" points="1005,-194 1005,-217 1267,-217 1267,-194 1005,-194"/>
<text text-anchor="start" x="1122" y="-201.8" font-family="arial" font-size="14.00">RTS</text>
<polygon fill="none" stroke="black" points="779,0 779,-194 1267,-194 1267,0 779,0"/>
<image xlink:href="minidin10.png" width="480px" height="186px" preserveAspectRatio="xMinYMin meet" x="783" y="-190"/>
</g>
<!-- CT&#45;167&#45;&#45;mini&#45;DIN&#45;10 -->
<g id="edge2" class="edge">
<title>CT&#45;167:e&#45;&#45;mini&#45;DIN&#45;10:w</title>
<path fill="none" stroke="#000000" stroke-width="2" d="M635,-414C698.64,-414.03 714.62,-411.03 779,-411"/>
<path fill="none" stroke="#895956" stroke-width="2" d="M635,-416C699.01,-416 714.99,-413 779,-413"/>
<path fill="none" stroke="#000000" stroke-width="2" d="M635,-418C699.38,-417.97 715.36,-414.97 779,-415"/>
</g>
<!-- CT&#45;167&#45;&#45;mini&#45;DIN&#45;10 -->
<g id="edge4" class="edge">
<title>CT&#45;167:e&#45;&#45;mini&#45;DIN&#45;10:w</title>
<path fill="none" stroke="#000000" stroke-width="2" d="M635,-239C702.64,-240.31 715.12,-274.31 779,-273"/>
<path fill="none" stroke="#999999" stroke-width="2" d="M635,-241C700.76,-241 713.24,-275 779,-275"/>
<path fill="none" stroke="#000000" stroke-width="2" d="M635,-243C698.88,-241.69 711.36,-275.69 779,-277"/>
</g>
<!-- CT&#45;167&#45;&#45;mini&#45;DIN&#45;10 -->
<g id="edge6" class="edge">
<title>CT&#45;167:e&#45;&#45;mini&#45;DIN&#45;10:w</title>
<path fill="none" stroke="#000000" stroke-width="2" d="M635,-264C697.96,-264.52 713.35,-250.52 779,-250"/>
<path fill="none" stroke="#0066ff" stroke-width="2" d="M635,-266C699.3,-266 714.7,-252 779,-252"/>
<path fill="none" stroke="#000000" stroke-width="2" d="M635,-268C700.65,-267.48 716.04,-253.48 779,-254"/>
</g>
<!-- CT&#45;167&#45;&#45;mini&#45;DIN&#45;10 -->
<g id="edge8" class="edge">
<title>CT&#45;167:e&#45;&#45;mini&#45;DIN&#45;10:w</title>
<path fill="none" stroke="#000000" stroke-width="2" d="M635,-364C699.13,-364 715.12,-365 779,-365"/>
<path fill="none" stroke="#ff0000" stroke-width="2" d="M635,-366C699,-366 715,-367 779,-367"/>
<path fill="none" stroke="#000000" stroke-width="2" d="M635,-368C698.88,-368 714.87,-369 779,-369"/>
</g>
<!-- CT&#45;167&#45;&#45;mini&#45;DIN&#45;10 -->
<g id="edge10" class="edge">
<title>CT&#45;167:e&#45;&#45;mini&#45;DIN&#45;10:w</title>
<path fill="none" stroke="#000000" stroke-width="2" d="M635,-339C699.38,-339.03 715.36,-342.03 779,-342"/>
<path fill="none" stroke="#ff8000" stroke-width="2" d="M635,-341C699.01,-341 714.99,-344 779,-344"/>
<path fill="none" stroke="#000000" stroke-width="2" d="M635,-343C698.64,-342.97 714.62,-345.97 779,-346"/>
</g>
<!-- CT&#45;167&#45;&#45;mini&#45;DIN&#45;10 -->
<g id="edge12" class="edge">
<title>CT&#45;167:e&#45;&#45;mini&#45;DIN&#45;10:w</title>
<path fill="none" stroke="#000000" stroke-width="2" d="M635,-389C698.88,-389 714.87,-388 779,-388"/>
<path fill="none" stroke="#000000" stroke-width="2" d="M635,-391C699,-391 715,-390 779,-390"/>
<path fill="none" stroke="#000000" stroke-width="2" d="M635,-393C699.13,-393 715.12,-392 779,-392"/>
</g>
</g>
</svg>
