<?xml version="1.0" encoding="UTF-8" standalone="no"?>
<!DOCTYPE svg PUBLIC "-//W3C//DTD SVG 1.1//EN"
 "http://www.w3.org/Graphics/SVG/1.1/DTD/svg11.dtd">
<!-- Generated by graphviz version 7.1.0 (0)
 -->
<!-- Pages: 1 -->
<svg width="1275pt" height="536pt"
 viewBox="0.00 0.00 1275.00 536.00" xmlns="http://www.w3.org/2000/svg" xmlns:xlink="http://www.w3.org/1999/xlink">
<g id="graph0" class="graph" transform="scale(1 1) rotate(0) translate(4 532)">
<polygon fill="#ffffff" stroke="none" points="-4,4 -4,-532 1271,-532 1271,4 -4,4"/>
<!-- DE&#45;9 -->
<g id="node1" class="node">
<title>DE&#45;9</title>
<polygon fill="#ffffff" stroke="black" points="125,-507.5 0,-507.5 0,-202.5 125,-202.5 125,-507.5"/>
<polygon fill="none" stroke="black" points="0.5,-484 0.5,-507 125.5,-507 125.5,-484 0.5,-484"/>
<text text-anchor="start" x="47.5" y="-491.8" font-family="arial" font-size="14.00">DE&#45;9</text>
<polygon fill="none" stroke="black" points="0.5,-461 0.5,-484 47.5,-484 47.5,-461 0.5,-461"/>
<text text-anchor="start" x="4.5" y="-468.8" font-family="arial" font-size="14.00">D&#45;Sub</text>
<polygon fill="none" stroke="black" points="47.5,-461 47.5,-484 86.5,-484 86.5,-461 47.5,-461"/>
<text text-anchor="start" x="51.5" y="-468.8" font-family="arial" font-size="14.00">male</text>
<polygon fill="none" stroke="black" points="86.5,-461 86.5,-484 125.5,-484 125.5,-461 86.5,-461"/>
<text text-anchor="start" x="90.5" y="-468.8" font-family="arial" font-size="14.00">9&#45;pin</text>
<polygon fill="none" stroke="black" points="0.5,-438 0.5,-461 103.5,-461 103.5,-438 0.5,-438"/>
<text text-anchor="start" x="42" y="-445.8" font-family="arial" font-size="14.00">NC</text>
<polygon fill="none" stroke="black" points="103.5,-438 103.5,-461 125.5,-461 125.5,-438 103.5,-438"/>
<text text-anchor="start" x="110.5" y="-445.8" font-family="arial" font-size="14.00">1</text>
<polygon fill="none" stroke="black" points="0.5,-415 0.5,-438 103.5,-438 103.5,-415 0.5,-415"/>
<text text-anchor="start" x="9" y="-422.8" font-family="arial" font-size="14.00">Baseband_TX</text>
<polygon fill="none" stroke="black" points="103.5,-415 103.5,-438 125.5,-438 125.5,-415 103.5,-415"/>
<text text-anchor="start" x="110.5" y="-422.8" font-family="arial" font-size="14.00">2</text>
<polygon fill="none" stroke="black" points="0.5,-392 0.5,-415 103.5,-415 103.5,-392 0.5,-392"/>
<text text-anchor="start" x="25.5" y="-399.8" font-family="arial" font-size="14.00">CAT_RX</text>
<polygon fill="none" stroke="black" points="103.5,-392 103.5,-415 125.5,-415 125.5,-392 103.5,-392"/>
<text text-anchor="start" x="110.5" y="-399.8" font-family="arial" font-size="14.00">3</text>
<polygon fill="none" stroke="black" points="0.5,-369 0.5,-392 103.5,-392 103.5,-369 0.5,-369"/>
<text text-anchor="start" x="26" y="-376.8" font-family="arial" font-size="14.00">CAT_TX</text>
<polygon fill="none" stroke="black" points="103.5,-369 103.5,-392 125.5,-392 125.5,-369 103.5,-369"/>
<text text-anchor="start" x="110.5" y="-376.8" font-family="arial" font-size="14.00">4</text>
<polygon fill="none" stroke="black" points="0.5,-346 0.5,-369 103.5,-369 103.5,-346 0.5,-346"/>
<text text-anchor="start" x="39" y="-353.8" font-family="arial" font-size="14.00">PTT</text>
<polygon fill="none" stroke="black" points="103.5,-346 103.5,-369 125.5,-369 125.5,-346 103.5,-346"/>
<text text-anchor="start" x="110.5" y="-353.8" font-family="arial" font-size="14.00">5</text>
<polygon fill="none" stroke="black" points="0.5,-323 0.5,-346 103.5,-346 103.5,-323 0.5,-323"/>
<text text-anchor="start" x="8" y="-330.8" font-family="arial" font-size="14.00">Baseband_RX</text>
<polygon fill="none" stroke="black" points="103.5,-323 103.5,-346 125.5,-346 125.5,-323 103.5,-323"/>
<text text-anchor="start" x="110.5" y="-330.8" font-family="arial" font-size="14.00">6</text>
<polygon fill="none" stroke="black" points="0.5,-300 0.5,-323 103.5,-323 103.5,-300 0.5,-300"/>
<text text-anchor="start" x="42" y="-307.8" font-family="arial" font-size="14.00">NC</text>
<polygon fill="none" stroke="black" points="103.5,-300 103.5,-323 125.5,-323 125.5,-300 103.5,-300"/>
<text text-anchor="start" x="110.5" y="-307.8" font-family="arial" font-size="14.00">7</text>
<polygon fill="none" stroke="black" points="0.5,-277 0.5,-300 103.5,-300 103.5,-277 0.5,-277"/>
<text text-anchor="start" x="36.5" y="-284.8" font-family="arial" font-size="14.00">GND</text>
<polygon fill="none" stroke="black" points="103.5,-277 103.5,-300 125.5,-300 125.5,-277 103.5,-277"/>
<text text-anchor="start" x="110.5" y="-284.8" font-family="arial" font-size="14.00">8</text>
<polygon fill="none" stroke="black" points="0.5,-254 0.5,-277 103.5,-277 103.5,-254 0.5,-254"/>
<text text-anchor="start" x="30.5" y="-261.8" font-family="arial" font-size="14.00">12V_In</text>
<polygon fill="none" stroke="black" points="103.5,-254 103.5,-277 125.5,-277 125.5,-254 103.5,-254"/>
<text text-anchor="start" x="110.5" y="-261.8" font-family="arial" font-size="14.00">9</text>
<polygon fill="none" stroke="black" points="0.5,-202 0.5,-254 125.5,-254 125.5,-202 0.5,-202"/>
<image xlink:href="dsub9.svg" width="117px" height="44px" preserveAspectRatio="xMinYMin meet" x="4.5" y="-250"/>
</g>
<!-- CT&#45;167 -->
<g id="node3" class="node">
<title>CT&#45;167</title>
<polygon fill="#ffffff" stroke="black" points="635,-528 269,-528 269,-148 635,-148 635,-528"/>
<polygon fill="none" stroke="black" points="269,-505 269,-528 635,-528 635,-505 269,-505"/>
<text text-anchor="start" x="429.5" y="-512.8" font-family="arial" font-size="14.00">CT&#45;167</text>
<polygon fill="none" stroke="black" points="269,-482 269,-505 471,-505 471,-482 269,-482"/>
<text text-anchor="start" x="332.5" y="-489.8" font-family="arial" font-size="14.00">P/N: CT&#45;167</text>
<polygon fill="none" stroke="black" points="471,-482 471,-505 635,-505 635,-482 471,-482"/>
<text text-anchor="start" x="534" y="-489.8" font-family="arial" font-size="14.00">Yaesu</text>
<polygon fill="none" stroke="black" points="269,-459 269,-482 435,-482 435,-459 269,-459"/>
<text text-anchor="start" x="286" y="-466.8" font-family="arial" font-size="14.00">Cable CT&#45;167 (pigtail)</text>
<polygon fill="none" stroke="black" points="435,-459 435,-482 491,-482 491,-459 435,-459"/>
<text text-anchor="start" x="452" y="-466.8" font-family="arial" font-size="14.00">10x</text>
<polygon fill="none" stroke="black" points="491,-459 491,-482 577,-482 577,-459 491,-459"/>
<text text-anchor="start" x="508" y="-466.8" font-family="arial" font-size="14.00">24 AWG</text>
<polygon fill="none" stroke="black" points="577,-459 577,-482 635,-482 635,-459 577,-459"/>
<text text-anchor="start" x="594" y="-466.8" font-family="arial" font-size="14.00">1 m</text>
<text text-anchor="start" x="337" y="-445.8" font-family="arial" font-size="14.00"> </text>
<text text-anchor="start" x="273" y="-426.8" font-family="arial" font-size="14.00">DE&#45;9:2:Baseband_TX</text>
<text text-anchor="start" x="416" y="-426.8" font-family="arial" font-size="14.00"> &#160;&#160;&#160;&#160;1:BN &#160;&#160;&#160;</text>
<text text-anchor="start" x="503" y="-426.8" font-family="arial" font-size="14.00">mini&#45;DIN&#45;10:1:PKD</text>
<polygon fill="#000000" stroke="none" points="269,-419 269,-421 635,-421 635,-419 269,-419"/>
<polygon fill="#895956" stroke="none" points="269,-417 269,-419 635,-419 635,-417 269,-417"/>
<polygon fill="#000000" stroke="none" points="269,-415 269,-417 635,-417 635,-415 269,-415"/>
<text text-anchor="start" x="300.5" y="-401.8" font-family="arial" font-size="14.00">DE&#45;9:8:GND</text>
<text text-anchor="start" x="416" y="-401.8" font-family="arial" font-size="14.00"> &#160;&#160;&#160;&#160;2:BK &#160;&#160;&#160;</text>
<text text-anchor="start" x="501.5" y="-401.8" font-family="arial" font-size="14.00">mini&#45;DIN&#45;10:2:GND</text>
<polygon fill="#000000" stroke="none" points="269,-394 269,-396 635,-396 635,-394 269,-394"/>
<polygon fill="#000000" stroke="none" points="269,-392 269,-394 635,-394 635,-392 269,-392"/>
<polygon fill="#000000" stroke="none" points="269,-390 269,-392 635,-392 635,-390 269,-390"/>
<text text-anchor="start" x="303" y="-376.8" font-family="arial" font-size="14.00">DE&#45;9:5:PTT</text>
<text text-anchor="start" x="415.5" y="-376.8" font-family="arial" font-size="14.00"> &#160;&#160;&#160;&#160;3:RD &#160;&#160;&#160;</text>
<text text-anchor="start" x="503.5" y="-376.8" font-family="arial" font-size="14.00">mini&#45;DIN&#45;10:3:PSK</text>
<polygon fill="#000000" stroke="none" points="269,-369 269,-371 635,-371 635,-369 269,-369"/>
<polygon fill="#ff0000" stroke="none" points="269,-367 269,-369 635,-369 635,-367 269,-367"/>
<polygon fill="#000000" stroke="none" points="269,-365 269,-367 635,-367 635,-365 269,-365"/>
<text text-anchor="start" x="272.5" y="-351.8" font-family="arial" font-size="14.00">DE&#45;9:6:Baseband_RX</text>
<text text-anchor="start" x="414" y="-351.8" font-family="arial" font-size="14.00"> &#160;&#160;&#160;&#160;4:OG &#160;&#160;&#160;</text>
<text text-anchor="start" x="490.5" y="-351.8" font-family="arial" font-size="14.00">mini&#45;DIN&#45;10:4:RX 9600</text>
<polygon fill="#000000" stroke="none" points="269,-344 269,-346 635,-346 635,-344 269,-344"/>
<polygon fill="#ff8000" stroke="none" points="269,-342 269,-344 635,-344 635,-342 269,-342"/>
<polygon fill="#000000" stroke="none" points="269,-340 269,-342 635,-342 635,-340 269,-340"/>
<text text-anchor="start" x="416" y="-326.8" font-family="arial" font-size="14.00"> &#160;&#160;&#160;&#160;5:YE &#160;&#160;&#160;</text>
<polygon fill="#000000" stroke="none" points="269,-319 269,-321 635,-321 635,-319 269,-319"/>
<polygon fill="#ffff00" stroke="none" points="269,-317 269,-319 635,-319 635,-317 269,-317"/>
<polygon fill="#000000" stroke="none" points="269,-315 269,-317 635,-317 635,-315 269,-315"/>
<text text-anchor="start" x="414.5" y="-301.8" font-family="arial" font-size="14.00"> &#160;&#160;&#160;&#160;6:GN &#160;&#160;&#160;</text>
<polygon fill="#000000" stroke="none" points="269,-294 269,-296 635,-296 635,-294 269,-294"/>
<polygon fill="#00ff00" stroke="none" points="269,-292 269,-294 635,-294 635,-292 269,-292"/>
<polygon fill="#000000" stroke="none" points="269,-290 269,-292 635,-292 635,-290 269,-290"/>
<text text-anchor="start" x="289.5" y="-276.8" font-family="arial" font-size="14.00">DE&#45;9:3:CAT_RX</text>
<text text-anchor="start" x="416" y="-276.8" font-family="arial" font-size="14.00"> &#160;&#160;&#160;&#160;7:BU &#160;&#160;&#160;</text>
<text text-anchor="start" x="503.5" y="-276.8" font-family="arial" font-size="14.00">mini&#45;DIN&#45;10:7:TXD</text>
<polygon fill="#000000" stroke="none" points="269,-269 269,-271 635,-271 635,-269 269,-269"/>
<polygon fill="#0066ff" stroke="none" points="269,-267 269,-269 635,-269 635,-267 269,-267"/>
<polygon fill="#000000" stroke="none" points="269,-265 269,-267 635,-267 635,-265 269,-265"/>
<text text-anchor="start" x="290.5" y="-251.8" font-family="arial" font-size="14.00">DE&#45;9:4:CAT_TX</text>
<text text-anchor="start" x="415" y="-251.8" font-family="arial" font-size="14.00"> &#160;&#160;&#160;&#160;8:GY &#160;&#160;&#160;</text>
<text text-anchor="start" x="502.5" y="-251.8" font-family="arial" font-size="14.00">mini&#45;DIN&#45;10:8:RXD</text>
<polygon fill="#000000" stroke="none" points="269,-244 269,-246 635,-246 635,-244 269,-244"/>
<polygon fill="#999999" stroke="none" points="269,-242 269,-244 635,-244 635,-242 269,-242"/>
<polygon fill="#000000" stroke="none" points="269,-240 269,-242 635,-242 635,-240 269,-240"/>
<text text-anchor="start" x="413.5" y="-226.8" font-family="arial" font-size="14.00"> &#160;&#160;&#160;&#160;9:WH &#160;&#160;&#160;</text>
<polygon fill="#000000" stroke="none" points="269,-219 269,-221 635,-221 635,-219 269,-219"/>
<polygon fill="#ffffff" stroke="none" points="269,-217 269,-219 635,-219 635,-217 269,-217"/>
<polygon fill="#000000" stroke="none" points="269,-215 269,-217 635,-217 635,-215 269,-215"/>
<text text-anchor="start" x="412.5" y="-201.8" font-family="arial" font-size="14.00"> &#160;&#160;&#160;&#160;10:BK &#160;&#160;&#160;</text>
<polygon fill="#000000" stroke="none" points="269,-194 269,-196 635,-196 635,-194 269,-194"/>
<polygon fill="#000000" stroke="none" points="269,-192 269,-194 635,-194 635,-192 269,-192"/>
<polygon fill="#000000" stroke="none" points="269,-190 269,-192 635,-192 635,-190 269,-190"/>
<text text-anchor="start" x="337" y="-176.8" font-family="arial" font-size="14.00"> </text>
<polygon fill="none" stroke="black" points="269,-148 269,-171 635,-171 635,-148 269,-148"/>
<text text-anchor="start" x="273" y="-155.8" font-family="arial" font-size="14.00">NOTE: The CT&#45;167 cable uses the thick black wire for GND</text>
</g>
<!-- DE&#45;9&#45;&#45;CT&#45;167 -->
<g id="edge1" class="edge">
<title>DE&#45;9:e&#45;&#45;CT&#45;167:w</title>
<path fill="none" stroke="#000000" stroke-width="2" d="M125,-425C188.13,-425.26 203.88,-416.26 269,-416"/>
<path fill="none" stroke="#895956" stroke-width="2" d="M125,-427C189.12,-427 204.88,-418 269,-418"/>
<path fill="none" stroke="#000000" stroke-width="2" d="M125,-429C190.12,-428.74 205.87,-419.74 269,-420"/>
</g>
<!-- DE&#45;9&#45;&#45;CT&#45;167 -->
<g id="edge3" class="edge">
<title>DE&#45;9:e&#45;&#45;CT&#45;167:w</title>
<path fill="none" stroke="#000000" stroke-width="2" d="M125,-402C211.08,-404.46 179.02,-268.46 269,-266"/>
<path fill="none" stroke="#0066ff" stroke-width="2" d="M125,-404C213.03,-404 180.97,-268 269,-268"/>
<path fill="none" stroke="#000000" stroke-width="2" d="M125,-406C214.98,-403.54 182.92,-267.54 269,-270"/>
</g>
<!-- DE&#45;9&#45;&#45;CT&#45;167 -->
<g id="edge5" class="edge">
<title>DE&#45;9:e&#45;&#45;CT&#45;167:w</title>
<path fill="none" stroke="#000000" stroke-width="2" d="M125,-379C211.7,-381.47 178.41,-243.47 269,-241"/>
<path fill="none" stroke="#999999" stroke-width="2" d="M125,-381C213.64,-381 180.36,-243 269,-243"/>
<path fill="none" stroke="#000000" stroke-width="2" d="M125,-383C215.59,-380.53 182.3,-242.53 269,-245"/>
</g>
<!-- DE&#45;9&#45;&#45;CT&#45;167 -->
<g id="edge7" class="edge">
<title>DE&#45;9:e&#45;&#45;CT&#45;167:w</title>
<path fill="none" stroke="#000000" stroke-width="2" d="M125,-356C190.23,-356.31 205.92,-366.31 269,-366"/>
<path fill="none" stroke="#ff0000" stroke-width="2" d="M125,-358C189.15,-358 204.85,-368 269,-368"/>
<path fill="none" stroke="#000000" stroke-width="2" d="M125,-360C188.08,-359.69 203.77,-369.69 269,-370"/>
</g>
<!-- DE&#45;9&#45;&#45;CT&#45;167 -->
<g id="edge9" class="edge">
<title>DE&#45;9:e&#45;&#45;CT&#45;167:w</title>
<path fill="none" stroke="#000000" stroke-width="2" d="M125,-332C190.12,-332.26 205.87,-341.26 269,-341"/>
<path fill="none" stroke="#ff8000" stroke-width="2" d="M125,-334C189.12,-334 204.88,-343 269,-343"/>
<path fill="none" stroke="#000000" stroke-width="2" d="M125,-336C188.13,-335.74 203.88,-344.74 269,-345"/>
</g>
<!-- DE&#45;9&#45;&#45;CT&#45;167 -->
<g id="edge11" class="edge">
<title>DE&#45;9:e&#45;&#45;CT&#45;167:w</title>
<path fill="none" stroke="#000000" stroke-width="2" d="M125,-286C206.19,-288.27 191.77,-393.27 269,-391"/>
<path fill="none" stroke="#000000" stroke-width="2" d="M125,-288C204.21,-288 189.79,-393 269,-393"/>
<path fill="none" stroke="#000000" stroke-width="2" d="M125,-290C202.23,-287.73 187.81,-392.73 269,-395"/>
</g>
<!-- mini&#45;DIN&#45;10 -->
<g id="node2" class="node">
<title>mini&#45;DIN&#45;10</title>
<polygon fill="#ffffff" stroke="black" points="1267,-470 779,-470 779,0 1267,0 1267,-470"/>
<polygon fill="none" stroke="black" points="779,-447 779,-470 1267,-470 1267,-447 779,-447"/>
<text text-anchor="start" x="986.5" y="-454.8" font-family="arial" font-size="14.00">mini&#45;DIN&#45;10</text>
<polygon fill="none" stroke="black" points="779,-424 779,-447 980,-447 980,-424 779,-424"/>
<text text-anchor="start" x="834" y="-431.8" font-family="arial" font-size="14.00">10&#45;pin miniDIN</text>
<polygon fill="none" stroke="black" points="980,-424 980,-447 1120,-447 1120,-424 980,-424"/>
<text text-anchor="start" x="1034.5" y="-431.8" font-family="arial" font-size="14.00">male</text>
<polygon fill="none" stroke="black" points="1120,-424 1120,-447 1267,-447 1267,-424 1120,-424"/>
<text text-anchor="start" x="1174.5" y="-431.8" font-family="arial" font-size="14.00">10&#45;pin</text>
<polygon fill="none" stroke="black" points="779,-401 779,-424 1005,-424 1005,-401 779,-401"/>
<text text-anchor="start" x="888" y="-408.8" font-family="arial" font-size="14.00">1</text>
<polygon fill="none" stroke="black" points="1005,-401 1005,-424 1267,-424 1267,-401 1005,-401"/>
<text text-anchor="start" x="1122" y="-408.8" font-family="arial" font-size="14.00">PKD</text>
<polygon fill="none" stroke="black" points="779,-378 779,-401 1005,-401 1005,-378 779,-378"/>
<text text-anchor="start" x="888" y="-385.8" font-family="arial" font-size="14.00">2</text>
<polygon fill="none" stroke="black" points="1005,-378 1005,-401 1267,-401 1267,-378 1005,-378"/>
<text text-anchor="start" x="1120.5" y="-385.8" font-family="arial" font-size="14.00">GND</text>
<polygon fill="none" stroke="black" points="779,-355 779,-378 1005,-378 1005,-355 779,-355"/>
<text text-anchor="start" x="888" y="-362.8" font-family="arial" font-size="14.00">3</text>
<polygon fill="none" stroke="black" points="1005,-355 1005,-378 1267,-378 1267,-355 1005,-355"/>
<text text-anchor="start" x="1122" y="-362.8" font-family="arial" font-size="14.00">PSK</text>
<polygon fill="none" stroke="black" points="779,-332 779,-355 1005,-355 1005,-332 779,-332"/>
<text text-anchor="start" x="888" y="-339.8" font-family="arial" font-size="14.00">4</text>
<polygon fill="none" stroke="black" points="1005,-332 1005,-355 1267,-355 1267,-332 1005,-332"/>
<text text-anchor="start" x="1109.5" y="-339.8" font-family="arial" font-size="14.00">RX 9600</text>
<polygon fill="none" stroke="black" points="779,-309 779,-332 1005,-332 1005,-309 779,-309"/>
<text text-anchor="start" x="888" y="-316.8" font-family="arial" font-size="14.00">5</text>
<polygon fill="none" stroke="black" points="1005,-309 1005,-332 1267,-332 1267,-309 1005,-309"/>
<text text-anchor="start" x="1109.5" y="-316.8" font-family="arial" font-size="14.00">RX 1200</text>
<polygon fill="none" stroke="black" points="779,-286 779,-309 1005,-309 1005,-286 779,-286"/>
<text text-anchor="start" x="888" y="-293.8" font-family="arial" font-size="14.00">6</text>
<polygon fill="none" stroke="black" points="1005,-286 1005,-309 1267,-309 1267,-286 1005,-286"/>
<text text-anchor="start" x="1111" y="-293.8" font-family="arial" font-size="14.00">PK SQL</text>
<polygon fill="none" stroke="black" points="779,-263 779,-286 1005,-286 1005,-263 779,-263"/>
<text text-anchor="start" x="888" y="-270.8" font-family="arial" font-size="14.00">7</text>
<polygon fill="none" stroke="black" points="1005,-263 1005,-286 1267,-286 1267,-263 1005,-263"/>
<text text-anchor="start" x="1122" y="-270.8" font-family="arial" font-size="14.00">TXD</text>
<polygon fill="none" stroke="black" points="779,-240 779,-263 1005,-263 1005,-240 779,-240"/>
<text text-anchor="start" x="888" y="-247.8" font-family="arial" font-size="14.00">8</text>
<polygon fill="none" stroke="black" points="1005,-240 1005,-263 1267,-263 1267,-240 1005,-240"/>
<text text-anchor="start" x="1121.5" y="-247.8" font-family="arial" font-size="14.00">RXD</text>
<polygon fill="none" stroke="black" points="779,-217 779,-240 1005,-240 1005,-217 779,-217"/>
<text text-anchor="start" x="888" y="-224.8" font-family="arial" font-size="14.00">9</text>
<polygon fill="none" stroke="black" points="1005,-217 1005,-240 1267,-240 1267,-217 1005,-217"/>
<text text-anchor="start" x="1122" y="-224.8" font-family="arial" font-size="14.00">CTS</text>
<polygon fill="none" stroke="black" points="779,-194 779,-217 1005,-217 1005,-194 779,-194"/>
<text text-anchor="start" x="884" y="-201.8" font-family="arial" font-size="14.00">10</text>
<polygon fill="none" stroke="black" points="1005,-194 1005,-217 1267,-217 1267,-194 1005,-194"/>
<text text-anchor="start" x="1122" y="-201.8" font-family="arial" font-size="14.00">RTS</text>
<polygon fill="none" stroke="black" points="779,0 779,-194 1267,-194 1267,0 779,0"/>
<image xlink:href="minidin10.png" width="480px" height="186px" preserveAspectRatio="xMinYMin meet" x="783" y="-190"/>
</g>
<!-- CT&#45;167&#45;&#45;mini&#45;DIN&#45;10 -->
<g id="edge2" class="edge">
<title>CT&#45;167:e&#45;&#45;mini&#45;DIN&#45;10:w</title>
<path fill="none" stroke="#000000" stroke-width="2" d="M635,-416C698.44,-416.09 714.36,-411.09 779,-411"/>
<path fill="none" stroke="#895956" stroke-width="2" d="M635,-418C699.04,-418 714.96,-413 779,-413"/>
<path fill="none" stroke="#000000" stroke-width="2" d="M635,-420C699.64,-419.91 715.56,-414.91 779,-415"/>
</g>
<!-- CT&#45;167&#45;&#45;mini&#45;DIN&#45;10 -->
<g id="edge4" class="edge">
<title>CT&#45;167:e&#45;&#45;mini&#45;DIN&#45;10:w</title>
<path fill="none" stroke="#000000" stroke-width="2" d="M635,-266C699.88,-266.17 715.73,-273.17 779,-273"/>
<path fill="none" stroke="#0066ff" stroke-width="2" d="M635,-268C699.08,-268 714.92,-275 779,-275"/>
<path fill="none" stroke="#000000" stroke-width="2" d="M635,-270C698.27,-269.83 714.12,-276.83 779,-277"/>
</g>
<!-- CT&#45;167&#45;&#45;mini&#45;DIN&#45;10 -->
<g id="edge6" class="edge">
<title>CT&#45;167:e&#45;&#45;mini&#45;DIN&#45;10:w</title>
<path fill="none" stroke="#000000" stroke-width="2" d="M635,-241C700.12,-241.26 715.87,-250.26 779,-250"/>
<path fill="none" stroke="#999999" stroke-width="2" d="M635,-243C699.12,-243 714.88,-252 779,-252"/>
<path fill="none" stroke="#000000" stroke-width="2" d="M635,-245C698.13,-244.74 713.88,-253.74 779,-254"/>
</g>
<!-- CT&#45;167&#45;&#45;mini&#45;DIN&#45;10 -->
<g id="edge8" class="edge">
<title>CT&#45;167:e&#45;&#45;mini&#45;DIN&#45;10:w</title>
<path fill="none" stroke="#000000" stroke-width="2" d="M635,-366C698.88,-366 714.87,-365 779,-365"/>
<path fill="none" stroke="#ff0000" stroke-width="2" d="M635,-368C699,-368 715,-367 779,-367"/>
<path fill="none" stroke="#000000" stroke-width="2" d="M635,-370C699.13,-370 715.12,-369 779,-369"/>
</g>
<!-- CT&#45;167&#45;&#45;mini&#45;DIN&#45;10 -->
<g id="edge10" class="edge">
<title>CT&#45;167:e&#45;&#45;mini&#45;DIN&#45;10:w</title>
<path fill="none" stroke="#000000" stroke-width="2" d="M635,-341C699.13,-341 715.12,-342 779,-342"/>
<path fill="none" stroke="#ff8000" stroke-width="2" d="M635,-343C699,-343 715,-344 779,-344"/>
<path fill="none" stroke="#000000" stroke-width="2" d="M635,-345C698.88,-345 714.87,-346 779,-346"/>
</g>
<!-- CT&#45;167&#45;&#45;mini&#45;DIN&#45;10 -->
<g id="edge12" class="edge">
<title>CT&#45;167:e&#45;&#45;mini&#45;DIN&#45;10:w</title>
<path fill="none" stroke="#000000" stroke-width="2" d="M635,-391C698.64,-391.03 714.62,-388.03 779,-388"/>
<path fill="none" stroke="#000000" stroke-width="2" d="M635,-393C699.01,-393 714.99,-390 779,-390"/>
<path fill="none" stroke="#000000" stroke-width="2" d="M635,-395C699.38,-394.97 715.36,-391.97 779,-392"/>
</g>
</g>
</svg>
